# xmcd
#
# Track frame offsets:
#	150
#	11467
#	25302
#	35507
#	60133
#	75933
#	83253
#	100410
#	114049
#	130687
#	172440
#	196547
#	219393
#	231672
#	252444
#
# Disc length: 3524 seconds
#
# Revision: 1
# Processed by: cddbd v1.5.2PL0 Copyright (c) Steve Scherf et al.
# Submitted via: audiograbber 1.83.01
#
DISCID=b00dc20f
DTITLE=The Late Bloomers - The Good Ol' Days: Vol. 1
DYEAR=2008
DGENRE=Country
TTITLE0=Nuttin' Like It
TTITLE1=Gurd Big Nudge
TTITLE2=Yarns and Sayings From Wish's Store Part One
TTITLE3=The Glow of the Kerosene Light
TTITLE4=The Late Bloomers Song
TTITLE5=Yarns and Sayings From Wish's Store Part Two
TTITLE6=Preddies
TTITLE7=The Good Ol' Newfie Outhouse
TTITLE8=Da Water Nipper
TTITLE9=The Dialect
TTITLE10=Da New School Marm
TTITLE11=A Bay Like Me
TTITLE12=When I Was a Boy
TTITLE13=Salt Water Joys
TTITLE14=The Good Ol' Days
EXTD=
EXTT0=
EXTT1=
EXTT2=
EXTT3=
EXTT4=
EXTT5=
EXTT6=
EXTT7=
EXTT8=
EXTT9=
EXTT10=
EXTT11=
EXTT12=
EXTT13=
EXTT14=
PLAYORDER=
